<svg data-v-423bf9ae="" xmlns="http://www.w3.org/2000/svg" viewBox="0 0 668 90" class="iconLeft"><!----><!----><!----><g data-v-423bf9ae="" id="f290dd13-3277-413b-aba3-bcd677559f0c" fill="white" transform="matrix(5.5147058243466915,0,0,5.5147058243466915,133.6623559865688,1.4338220312263346)"><path d="M8.16 3.54L7.67 3.54C7.07 3.54 6.87 3.81 6.87 4.47L6.87 7.95C6.87 8.92 6.92 10.36 6.99 11.48L6.93 11.49C6.66 10.92 6.36 10.19 6.01 9.46L3.05 3.60C2.76 3.56 2.35 3.54 2.16 3.54C1.97 3.54 1.51 3.57 1.27 3.61L1.27 13.16C1.51 13.20 1.78 13.22 1.97 13.22C2.17 13.22 2.41 13.20 2.66 13.16L2.66 8.79C2.66 7.74 2.59 6.33 2.53 5.36L2.59 5.35C2.84 5.94 3.14 6.59 3.47 7.29L6.45 13.16C6.75 13.20 7.17 13.22 7.35 13.22C7.53 13.22 8.01 13.19 8.25 13.15L8.25 3.61ZM15.74 10.16C15.81 9.77 15.83 9.51 15.83 9.06C15.83 7.39 14.87 6.06 13.06 6.06C11.12 6.06 10.14 7.63 10.14 9.72C10.14 11.61 10.81 13.34 13.02 13.34C14 13.34 14.98 13.03 15.65 12.56C15.60 12.26 15.43 11.86 15.19 11.63C14.60 11.94 13.94 12.17 13.24 12.17C12.05 12.17 11.68 11.33 11.62 10.16ZM13.05 7.14C14.06 7.14 14.45 7.95 14.45 8.93L14.45 9.11L11.62 9.11C11.69 7.88 12.15 7.14 13.05 7.14ZM21.41 8.78L21.41 13.16C21.60 13.20 21.87 13.22 22.13 13.22C22.39 13.22 22.65 13.20 22.85 13.16L22.85 8.30L22.85 8.29C23.31 7.77 23.88 7.43 24.36 7.43C24.92 7.43 25.20 7.78 25.20 8.76L25.20 12.33C25.20 12.94 25.41 13.26 25.97 13.26C26.32 13.26 26.67 13.12 26.88 12.95C26.70 12.61 26.66 12.17 26.66 11.68L26.66 8.32C26.66 7.10 26.08 6.12 24.85 6.12C24.05 6.12 23.27 6.57 22.62 7.15C22.36 6.54 21.83 6.12 21.03 6.12C20.31 6.12 19.61 6.51 19.04 7.07C19.01 6.51 18.79 6.19 18.24 6.19L17.70 6.19L17.61 6.29L17.61 13.16C17.82 13.20 18.07 13.22 18.34 13.22C18.59 13.22 18.86 13.20 19.05 13.16L19.05 8.29C19.50 7.78 20.09 7.43 20.57 7.43C21.13 7.43 21.41 7.80 21.41 8.78ZM34.34 9.70C34.34 8.55 34.09 7.57 33.35 6.83C32.83 6.31 32.14 6.06 31.32 6.06C30.49 6.06 29.81 6.31 29.29 6.83C28.55 7.57 28.29 8.55 28.29 9.70C28.29 10.86 28.55 11.83 29.29 12.57C29.81 13.09 30.49 13.34 31.32 13.34C32.14 13.34 32.83 13.09 33.35 12.57C34.09 11.83 34.34 10.86 34.34 9.70ZM29.79 9.70C29.79 8.41 30.11 7.17 31.32 7.17C32.52 7.17 32.86 8.41 32.86 9.70C32.86 11.00 32.52 12.24 31.32 12.24C30.11 12.24 29.79 11.00 29.79 9.70ZM35.56 3.32C35.56 3.56 35.84 4.68 35.99 6.05C36.19 6.15 36.58 6.15 36.76 6.05C36.92 4.69 37.20 3.56 37.20 3.32C37.20 3.08 37.16 2.87 37.10 2.65C36.92 2.53 36.65 2.46 36.37 2.46C36.08 2.46 35.84 2.53 35.66 2.65C35.60 2.87 35.56 3.08 35.56 3.32ZM38.35 12.64C38.95 13.01 39.84 13.34 40.87 13.34C42.43 13.34 43.54 12.56 43.54 11.26C43.54 10.18 42.80 9.55 41.76 9.16L40.92 8.83C40.33 8.61 40.05 8.39 40.05 7.98C40.05 7.50 40.45 7.17 41.06 7.17C41.75 7.17 42.45 7.41 42.92 7.63C43.19 7.41 43.36 6.93 43.36 6.57C42.77 6.30 41.82 6.06 41.06 6.06C39.66 6.06 38.60 6.85 38.60 8.13C38.60 9.20 39.40 9.77 40.38 10.14L41.16 10.43C41.73 10.64 42.04 10.99 42.04 11.38C42.03 11.90 41.55 12.25 40.78 12.25C40.14 12.25 39.41 11.96 38.82 11.63C38.57 11.86 38.36 12.32 38.35 12.64ZM53.56 6.90C53.80 6.96 53.96 6.99 54.18 6.99C54.78 6.99 55.02 6.65 55.02 6.15C55.02 4.73 53.73 3.42 51.65 3.42C49.59 3.42 47.81 4.94 47.81 8.43C47.81 10.91 48.78 13.34 51.45 13.34C52.89 13.34 54.18 12.71 54.95 11.94C54.85 11.59 54.53 11.19 54.21 10.98C53.40 11.65 52.57 12.04 51.70 12.04C50.25 12.04 49.38 10.74 49.38 8.43C49.38 5.95 50.15 4.62 51.62 4.62C53.13 4.62 53.59 5.84 53.56 6.90ZM61.95 12.52C61.63 12.24 61.56 11.84 61.56 11.31L61.56 8.44C61.56 6.85 60.65 6.10 59.26 6.10C58.32 6.10 57.15 6.40 56.36 6.75C56.38 7.11 56.55 7.57 56.78 7.80C57.51 7.52 58.28 7.27 58.98 7.27C59.71 7.27 60.13 7.63 60.13 8.51L60.13 9.06C59.67 8.99 59.16 8.96 58.79 8.96C57.26 8.96 56.10 9.69 56.10 11.28C56.10 12.28 56.77 13.34 58.17 13.34C59.07 13.34 59.78 12.88 60.28 12.39C60.47 12.82 60.83 13.15 61.40 13.26C61.64 13.12 61.87 12.78 61.95 12.52ZM58.48 12.19C57.88 12.19 57.54 11.75 57.54 11.17C57.54 10.42 58.03 9.97 58.87 9.97C59.26 9.97 59.71 9.98 60.13 10.02L60.13 11.35C59.63 11.91 59.01 12.19 58.48 12.19ZM66.93 6.23L65.21 6.27L65.21 4.20L65.11 4.10L64.57 4.10C63.97 4.10 63.80 4.38 63.80 5.03L63.80 6.26L62.76 6.23C62.72 6.43 62.71 6.58 62.71 6.76C62.71 6.96 62.72 7.13 62.76 7.31L63.80 7.29L63.80 11.77C63.80 12.74 64.32 13.22 65.27 13.22C65.83 13.22 66.37 13.17 66.84 13.12C66.86 13.02 66.86 12.91 66.86 12.81C66.86 12.56 66.82 12.28 66.75 12.08L65.79 12.08C65.37 12.08 65.21 11.84 65.21 11.47L65.21 7.28L66.93 7.31C66.99 7.13 67.00 6.96 67.00 6.76C67.00 6.58 66.99 6.43 66.93 6.23ZM76.86 6.90C77.10 6.96 77.25 6.99 77.48 6.99C78.08 6.99 78.32 6.65 78.32 6.15C78.32 4.73 77.03 3.42 74.94 3.42C72.88 3.42 71.11 4.94 71.11 8.43C71.11 10.91 72.07 13.34 74.75 13.34C76.19 13.34 77.48 12.71 78.25 11.94C78.15 11.59 77.83 11.19 77.50 10.98C76.69 11.65 75.87 12.04 75.00 12.04C73.54 12.04 72.67 10.74 72.67 8.43C72.67 5.95 73.44 4.62 74.91 4.62C76.43 4.62 76.89 5.84 76.86 6.90ZM85.25 12.52C84.92 12.24 84.85 11.84 84.85 11.31L84.85 8.44C84.85 6.85 83.94 6.10 82.56 6.10C81.62 6.10 80.44 6.40 79.66 6.75C79.67 7.11 79.84 7.57 80.08 7.80C80.81 7.52 81.58 7.27 82.28 7.27C83.01 7.27 83.43 7.63 83.43 8.51L83.43 9.06C82.96 8.99 82.46 8.96 82.08 8.96C80.56 8.96 79.39 9.69 79.39 11.28C79.39 12.28 80.07 13.34 81.47 13.34C82.36 13.34 83.08 12.88 83.58 12.39C83.76 12.82 84.13 13.15 84.70 13.26C84.94 13.12 85.16 12.78 85.25 12.52ZM81.77 12.19C81.17 12.19 80.84 11.75 80.84 11.17C80.84 10.42 81.33 9.97 82.17 9.97C82.56 9.97 83.01 9.98 83.43 10.02L83.43 11.35C82.92 11.91 82.31 12.19 81.77 12.19ZM87.30 13.16C87.51 13.20 87.78 13.22 88.00 13.22C88.24 13.22 88.49 13.20 88.72 13.16L88.72 7.28L90.59 7.31C90.64 7.13 90.65 6.94 90.65 6.76C90.65 6.58 90.64 6.41 90.59 6.23L88.62 6.26C88.56 5.85 88.52 5.45 88.52 5.08C88.52 4.33 88.91 3.91 89.56 3.91C89.95 3.91 90.40 4.00 90.76 4.12C90.97 3.89 91.10 3.47 91.10 3.14C90.66 2.97 89.94 2.81 89.31 2.81C87.93 2.81 87.15 3.75 87.15 5.00C87.15 5.39 87.19 5.81 87.23 6.24L86.10 6.23C86.06 6.41 86.04 6.58 86.04 6.76C86.04 6.94 86.06 7.13 86.10 7.31L87.30 7.28ZM96.64 10.16C96.71 9.77 96.74 9.51 96.74 9.06C96.74 7.39 95.77 6.06 93.97 6.06C92.02 6.06 91.04 7.63 91.04 9.72C91.04 11.61 91.71 13.34 93.93 13.34C94.91 13.34 95.89 13.03 96.56 12.56C96.50 12.26 96.33 11.86 96.10 11.63C95.51 11.94 94.85 12.17 94.15 12.17C92.96 12.17 92.58 11.33 92.53 10.16ZM93.95 7.14C94.96 7.14 95.35 7.95 95.35 8.93L95.35 9.11L92.53 9.11C92.60 7.88 93.06 7.14 93.95 7.14Z"></path></g><!----><g data-v-423bf9ae="" id="5cfca4bc-4b70-428a-bdd2-d9d174e2c3b4" transform="matrix(1.2066365994935524,0,0,1.2066365994935524,0.6111558255332312,-15.693404190130849)" stroke="none" fill="white"><circle cx="35.735" cy="49.639" r="4.397"></circle><circle cx="66.599" cy="49.639" r="4.397"></circle><path d="M43.107 60.675c0 4.168 7.546 7.55 7.546 7.55s7.55-3.382 7.55-7.55-15.096-4.168-15.096 0z"></path><path d="M98.236 69.06l-9.263-1.48a29.861 29.861 0 0 0 1.438-3.615l7.062 1.131c.13.021.258.028.386.028a2.417 2.417 0 0 0 .379-4.803l-6.675-1.067c.28-1.726.427-3.508.427-5.343 0-6.845-4.561-22.027-6.425-26.725-1.431-3.602-2.868-5.95-4.531-8.67a121.748 121.748 0 0 1-2.514-4.245 2.416 2.416 0 0 0-1.964-1.23c-.849-.062-1.611.324-2.097.987-3.021 4.139-7.708 8.75-9.605 8.75-.775 0-2.202-.176-3.855-.38-2.922-.36-6.562-.81-10.338-.81-3.111 0-6.12.394-8.776.741-1.843.241-3.434.449-4.533.449-3.984 0-8.543-6.114-9.827-8.256a2.418 2.418 0 0 0-2.058-1.175 2.373 2.373 0 0 0-2.072 1.145c-2.846 4.602-4.725 7.642-6.769 12.961-1.877 4.884-6.276 19.777-6.276 26.457 0 1.735.136 3.422.386 5.062L2.311 60.32a2.417 2.417 0 0 0 .764 4.775l8.765-1.402a29.993 29.993 0 0 0 1.403 3.62L2.307 69.06a2.418 2.418 0 1 0 .764 4.777l12.746-2.039c6.81 9.795 19.501 15.824 35.349 15.824 15.708 0 28.317-5.926 35.172-15.568l11.136 1.781a2.415 2.415 0 0 0 2.768-2.005 2.42 2.42 0 0 0-2.006-2.77zM51.165 82.786c-11.613 0-23.289-3.759-30.068-11.836l2.122-.338a2.417 2.417 0 0 0-.763-4.774l-4.327.693a24.89 24.89 0 0 1-1.531-3.601l6.621-1.057a2.418 2.418 0 0 0-.763-4.775l-6.967 1.115a30.546 30.546 0 0 1-.31-4.302c0-5.423 3.863-19.281 5.955-24.725 1.408-3.665 2.707-6.117 4.445-9.015 2.48 3.151 6.775 7.44 11.767 7.44 1.414 0 3.149-.227 5.16-.489 2.508-.328 5.352-.7 8.15-.7 3.479 0 6.953.428 9.746.772 1.886.232 3.375.417 4.446.417 3.909 0 8.436-4.511 11.267-7.873.271.448.534.88.793 1.301 1.609 2.635 2.883 4.715 4.16 7.93 2.081 5.247 6.083 19.387 6.083 24.941 0 1.6-.129 3.12-.352 4.58l-8.715-1.394a2.408 2.408 0 0 0-2.769 2.005 2.42 2.42 0 0 0 2.004 2.769l8.316 1.329a24.754 24.754 0 0 1-1.567 3.592l-5.984-.957c-1.332-.212-2.559.687-2.77 2.004s.688 2.558 2.003 2.769l3.694.592c-6.804 7.904-18.355 11.587-29.846 11.587z"></path></g><!----></svg>